<svg width="26" height="26" viewBox="0 0 26 26" fill="none" xmlns="http://www.w3.org/2000/svg">
<path d="M0.542739 4.83214C4.11114 7.85418 10.3726 13.1709 12.2129 14.8286C12.4599 15.0524 12.7249 15.1661 13 15.1661C13.2745 15.1661 13.539 15.0534 13.7855 14.8308C15.6274 13.1714 21.8888 7.85418 25.4573 4.83214C25.6795 4.64435 25.7133 4.31427 25.5335 4.08469C25.1177 3.55418 24.4977 3.25 23.8333 3.25H2.16667C1.5023 3.25 0.882313 3.55418 0.466567 4.08474C0.2867 4.31427 0.320571 4.64435 0.542739 4.83214Z" fill="#CD06FF"/>
<path d="M25.6858 6.46981C25.4938 6.38044 25.2679 6.41162 25.1082 6.54812C21.1509 9.90283 16.1003 14.2029 14.5113 15.6348C13.6194 16.4398 12.3816 16.4398 11.4876 15.6337C9.79387 14.1076 4.12222 9.28604 0.89182 6.54806C0.730996 6.41157 0.504613 6.38145 0.314184 6.46976C0.122738 6.55868 0 6.75017 0 6.96122V20.5833C0 21.7783 0.971699 22.75 2.16668 22.75H23.8334C25.0283 22.75 26 21.7783 26 20.5833V6.96122C26 6.75017 25.8773 6.55817 25.6858 6.46981Z" fill="#CD06FF"/>
</svg>
