<svg width="26" height="26" viewBox="0 0 26 26" fill="none" xmlns="http://www.w3.org/2000/svg">
<path d="M21.6667 11.9155H23.8333C23.8333 6.35804 19.6376 2.16663 14.0725 2.16663V4.33329C18.473 4.33329 21.6667 7.52154 21.6667 11.9155Z" fill="#CD06FF"/>
<path d="M14.0834 8.66672C16.3616 8.66672 17.3334 9.63847 17.3334 11.9167H19.5001C19.5001 8.42297 17.5771 6.50006 14.0834 6.50006V8.66672ZM17.7906 14.5633C17.5824 14.3741 17.3089 14.2732 17.0277 14.2819C16.7465 14.2906 16.4797 14.4082 16.2836 14.6099L13.6912 17.276C13.0672 17.1568 11.8127 16.7657 10.5214 15.4776C9.23006 14.1852 8.83898 12.9275 8.72306 12.3078L11.387 9.71431C11.5889 9.51836 11.7067 9.25153 11.7154 8.97028C11.7241 8.68903 11.623 8.41543 11.4336 8.20739L7.43064 3.80581C7.24111 3.59711 6.97768 3.47052 6.69631 3.45292C6.41494 3.43532 6.13779 3.5281 5.92373 3.71156L3.57289 5.72764C3.3856 5.91561 3.27381 6.16579 3.25873 6.43072C3.24248 6.70156 2.93264 13.1171 7.90731 18.0939C12.2471 22.4326 17.6833 22.7501 19.1805 22.7501C19.3993 22.7501 19.5336 22.7436 19.5694 22.7414C19.8343 22.7266 20.0843 22.6143 20.2714 22.4261L22.2864 20.0742C22.47 19.8603 22.5629 19.5832 22.5456 19.3019C22.5282 19.0205 22.4018 18.757 22.1932 18.5673L17.7906 14.5633Z" fill="#CD06FF"/>
</svg>
